<?xml version="1.0" encoding="UTF-8" standalone="no"?>
<!-- Created with Inkscape (http://www.inkscape.org/) -->

<svg
   width="210.76888mm"
   height="39.512897mm"
   viewBox="0 0 210.76887 39.512898"
   version="1.1"
   id="svg5"
   inkscape:version="1.1.2 (b8e25be833, 2022-02-05)"
   sodipodi:docname="logo.svg"
   xmlns:inkscape="http://www.inkscape.org/namespaces/inkscape"
   xmlns:sodipodi="http://sodipodi.sourceforge.net/DTD/sodipodi-0.dtd"
   xmlns="http://www.w3.org/2000/svg"
   xmlns:svg="http://www.w3.org/2000/svg">
  <sodipodi:namedview
     id="namedview7"
     pagecolor="#ffffff"
     bordercolor="#666666"
     borderopacity="1.0"
     inkscape:pageshadow="2"
     inkscape:pageopacity="0.0"
     inkscape:pagecheckerboard="0"
     inkscape:document-units="mm"
     showgrid="false"
     showguides="true"
     inkscape:guide-bbox="true"
     fit-margin-top="0"
     fit-margin-left="0"
     fit-margin-right="0"
     fit-margin-bottom="0"
     inkscape:zoom="0.52347032"
     inkscape:cx="291.32502"
     inkscape:cy="315.20412"
     inkscape:window-width="1920"
     inkscape:window-height="1017"
     inkscape:window-x="-8"
     inkscape:window-y="-8"
     inkscape:window-maximized="1"
     inkscape:current-layer="layer1" />
  <defs
     id="defs2" />
  <g
     inkscape:label="Capa 1"
     inkscape:groupmode="layer"
     id="layer1"
     transform="translate(-30.068251,-155.85611)">
    <path
       id="rect17739"
       style="fill:none;stroke-width:0.222424"
       d="M 30.068251,155.85611 H 240.83713 v 39.5129 H 30.068251 Z" />
    <g
       id="g16766"
       transform="matrix(0.70579069,0,0,0.70579069,15.001031,50.814837)">
      <path
         id="path10638"
         style="stroke-width:0.111919"
         d="m 69.885216,176.81973 a 18.897602,18.897602 0 0 1 -18.897602,18.8976 18.897602,18.897602 0 0 1 -18.897602,-18.8976 18.897602,18.897602 0 0 1 18.897602,-18.8976 18.897602,18.897602 0 0 1 18.897602,18.8976 z" />
      <g
         id="g13868"
         transform="matrix(0.44902901,0,0,0.44902901,-33.953264,68.342659)"
         style="fill:#ffffff">
        <g
           aria-label="ite"
           id="text1112-0-7-1"
           style="font-size:54.9004px;line-height:1.25;letter-spacing:-6.83004px;stroke-width:1.37252">
          <path
             d="m 167.79504,232.39243 q -2.60777,0 -2.60777,-2.63522 v -1.61957 q 0,-2.58031 2.60777,-2.58031 h 1.59211 q 2.49797,0 2.49797,2.58031 v 1.61957 q 0,2.63522 -2.49797,2.63522 z m 0.76861,32.33633 q -2.30582,0 -2.30582,-2.30582 v -23.22287 q 0,-2.30581 2.30582,-2.30581 2.30581,0 2.30581,2.30581 v 23.22287 q 0,2.30582 -2.30581,2.30582 z"
             style="font-weight:bold;font-family:Jura;-inkscape-font-specification:'Jura Bold'"
             id="path833" />
          <path
             d="m 187.20738,264.72876 q -5.43514,0 -8.01546,-2.58032 -2.58032,-2.58032 -2.58032,-7.96056 v -12.68199 h -2.69012 q -2.30581,0 -2.30581,-2.30582 0,-2.30581 2.30581,-2.30581 h 2.69012 v -4.00773 q 0,-2.30582 2.30582,-2.30582 2.30582,0 2.30582,2.30582 v 4.00773 h 6.31354 q 2.30582,0 2.30582,2.30581 0,2.30582 -2.30582,2.30582 h -6.31354 v 12.68199 q 0,3.48618 1.26271,4.72144 1.26271,1.20781 4.72143,1.20781 1.07056,0 1.67446,0.549 0.63136,0.549 0.63136,1.75681 0,2.30582 -2.30582,2.30582 z"
             style="font-weight:bold;font-family:Jura;-inkscape-font-specification:'Jura Bold'"
             id="path835" />
          <path
             d="m 192.72992,252.70557 v 1.31761 q 0,3.54108 1.29015,4.83124 1.29016,1.26271 4.85869,1.26271 h 4.50183 q 2.79992,0 4.14498,-0.52156 1.34506,-0.52155 1.78427,-1.83916 0.30195,-1.04311 0.8235,-1.59211 0.54901,-0.54901 1.64701,-0.54901 1.15291,0 1.75682,0.60391 0.6039,0.6039 0.3843,1.75681 -0.60391,3.40383 -3.23912,5.07829 -2.63522,1.67446 -7.30176,1.67446 h -4.50183 q -5.46259,0 -8.12526,-2.63522 -2.63522,-2.63522 -2.63522,-8.07036 v -6.36844 q 0,-5.57239 2.63522,-8.18016 2.66267,-2.63522 8.12526,-2.58032 h 4.50183 q 5.49004,0 8.12526,2.63522 2.63522,2.60777 2.63522,8.12526 v 2.74502 q 0,2.30581 -2.30582,2.30581 z m 6.14884,-11.19968 q -3.56853,-0.0549 -4.85869,1.23526 -1.29015,1.29016 -1.29015,4.91359 v 0.4392 h 16.79952 v -0.4392 q 0,-3.59598 -1.29016,-4.85869 -1.26271,-1.29016 -4.85869,-1.29016 z"
             style="font-weight:bold;font-family:Jura;-inkscape-font-specification:'Jura Bold'"
             id="path837" />
        </g>
        <path
           d="m 174.17407,225.45227 c -1.34493,0 -2.0174,-0.67954 -2.0174,-2.03863 v -1.25291 c 0,-1.33077 0.67247,-1.99616 2.0174,-1.99616 h 1.23167 c 1.28831,0 1.93246,0.66539 1.93246,1.99616 v 1.25291 c 0,1.35909 -0.64415,2.03863 -1.93246,2.03863 z"
           style="font-size:54.9004px;-inkscape-font-specification:'Jura Bold';letter-spacing:-6.83004px;fill:#ffffff;stroke-width:1.0618"
           id="path13515"
           sodipodi:nodetypes="sssssssss" />
        <path
           d="m 169.37088,219.44134 c -1.01694,0 -1.52542,-0.51382 -1.52542,-1.54147 v -0.94737 c 0,-1.00624 0.50848,-1.50936 1.52542,-1.50936 h 0.93131 c 0.97414,0 1.4612,0.50312 1.4612,1.50936 v 0.94737 c 0,1.02765 -0.48706,1.54147 -1.4612,1.54147 z"
           style="font-size:54.9004px;-inkscape-font-specification:'Jura Bold';letter-spacing:-6.83004px;fill:#ffffff;stroke-width:0.802862"
           id="path13515-9"
           sodipodi:nodetypes="sssssssss" />
      </g>
    </g>
    <g
       aria-label="Inteligencia Tecnológica"
       id="text15100"
       style="font-size:13.7709px;line-height:1.25;letter-spacing:-0.529167px;stroke-width:0.344273">
      <path
         d="m 74.249,179.21246 q -0.296074,0 -0.440668,-0.13771 -0.137709,-0.14459 -0.137709,-0.44066 v -8.16615 q 0,-0.30296 0.137709,-0.44067 0.144594,-0.13771 0.440668,-0.13771 0.30296,0 0.440669,0.13771 0.137709,0.13771 0.137709,0.44067 v 8.16615 q 0,0.29607 -0.137709,0.44066 -0.137709,0.13771 -0.440669,0.13771 z"
         style="font-weight:bold;font-family:Jura;-inkscape-font-specification:'Jura Bold'"
         id="path840" />
      <path
         d="m 77.740934,179.21246 q -0.578378,0 -0.578378,-0.57837 v -5.8251 q 0,-0.57837 0.578378,-0.57837 0.578377,0 0.578377,0.57837 v 0.22722 q 0.729858,-0.80559 2.148261,-0.80559 h 0.385585 q 1.37709,0 2.038093,0.661 0.661003,0.661 0.661003,2.03809 v 3.70438 q 0,0.57837 -0.578378,0.57837 -0.578377,0 -0.578377,-0.57837 v -3.70438 q 0,-0.90199 -0.330502,-1.21872 -0.323616,-0.32362 -1.211839,-0.32362 h -0.385585 q -0.826254,0 -1.439059,0.1928 -0.612805,0.1859 -0.709202,0.59214 v 4.46178 q 0,0.57837 -0.578377,0.57837 z"
         style="font-weight:bold;font-family:Jura;-inkscape-font-specification:'Jura Bold'"
         id="path842" />
      <path
         d="m 88.696705,179.21246 q -1.363319,0 -2.010551,-0.64723 -0.647232,-0.64723 -0.647232,-1.99678 v -3.18108 h -0.674774 q -0.578378,0 -0.578378,-0.57838 0,-0.57837 0.578378,-0.57837 h 0.674774 v -1.00528 q 0,-0.57838 0.578378,-0.57838 0.578377,0 0.578377,0.57838 v 1.00528 h 1.583654 q 0.578378,0 0.578378,0.57837 0,0.57838 -0.578378,0.57838 h -1.583654 v 3.18108 q 0,0.87445 0.316731,1.1843 0.316731,0.30296 1.184297,0.30296 0.268533,0 0.420013,0.13771 0.158365,0.13771 0.158365,0.44067 0,0.57837 -0.578378,0.57837 z"
         style="font-weight:bold;font-family:Jura;-inkscape-font-specification:'Jura Bold'"
         id="path844" />
      <path
         d="m 91.265988,176.19664 v 0.3305 q 0,0.88822 0.323616,1.21184 0.323617,0.31673 1.218725,0.31673 h 1.129214 q 0.702316,0 1.039703,-0.13083 0.337387,-0.13082 0.447554,-0.46132 0.07574,-0.26165 0.206564,-0.39936 0.137709,-0.13771 0.413127,-0.13771 0.289188,0 0.440668,0.15148 0.15148,0.15148 0.0964,0.44067 -0.15148,0.8538 -0.812483,1.27381 -0.661004,0.42001 -1.83153,0.42001 h -1.129214 q -1.370204,0 -2.038093,-0.661 -0.661003,-0.661 -0.661003,-2.02432 v -1.59743 q 0,-1.39774 0.661003,-2.05186 0.667889,-0.661 2.038093,-0.64723 h 1.129214 q 1.37709,0 2.038093,0.661 0.661003,0.65412 0.661003,2.03809 v 0.68855 q 0,0.57838 -0.578378,0.57838 z m 1.542341,-2.80927 q -0.895108,-0.0138 -1.218725,0.30985 -0.323616,0.32361 -0.323616,1.23249 v 0.11017 h 4.213896 v -0.11017 q 0,-0.90199 -0.323617,-1.21872 -0.31673,-0.32362 -1.218724,-0.32362 z"
         style="font-weight:bold;font-family:Jura;-inkscape-font-specification:'Jura Bold'"
         id="path846" />
      <path
         d="m 100.72073,179.21246 q -1.05347,0 -1.569879,-0.51641 -0.509523,-0.52329 -0.509523,-1.57676 v -7.02316 q 0,-0.57838 0.578377,-0.57838 0.578378,0 0.578378,0.57838 v 7.02316 q 0,0.55772 0.179022,0.75051 0.185905,0.18591 0.743625,0.18591 0.59215,0 0.59215,0.57838 0.0207,0.57837 -0.59215,0.57837 z"
         style="font-weight:bold;font-family:Jura;-inkscape-font-specification:'Jura Bold'"
         id="path848" />
      <path
         d="m 103.22117,171.1014 q -0.65412,0 -0.65412,-0.661 v -0.40624 q 0,-0.64723 0.65412,-0.64723 h 0.39936 q 0.62657,0 0.62657,0.64723 v 0.40624 q 0,0.661 -0.62657,0.661 z m 0.19279,8.11106 q -0.57837,0 -0.57837,-0.57837 v -5.8251 q 0,-0.57837 0.57837,-0.57837 0.57838,0 0.57838,0.57837 v 5.8251 q 0,0.57837 -0.57838,0.57837 z"
         style="font-weight:bold;font-family:Jura;-inkscape-font-specification:'Jura Bold'"
         id="path850" />
      <path
         d="m 107.98003,181.96664 q -0.83314,0 -1.31513,-0.33738 -0.47509,-0.33739 -0.6128,-1.02594 -0.0482,-0.28918 0.10328,-0.45444 0.15148,-0.16525 0.46133,-0.16525 0.26164,0 0.3787,0.13771 0.12393,0.1446 0.21344,0.4269 0.0826,0.15148 0.25477,0.20656 0.17902,0.0551 0.51641,0.0551 h 2.56138 q 0.51641,0 0.66789,-0.16525 0.15837,-0.15837 0.15837,-0.66101 v -1.60431 q -0.37182,0.40625 -0.92265,0.61969 -0.54395,0.21345 -1.22561,0.21345 h -0.5233 q -1.3702,0 -2.03809,-0.661 -0.661,-0.661 -0.661,-2.02432 v -1.59743 q 0,-1.38397 0.65411,-2.03809 0.66101,-0.661 2.04498,-0.661 h 1.12922 q 0.48886,0 0.87445,0.14459 0.39247,0.1446 0.66789,0.44067 v -0.007 q 0,-0.57837 0.57837,-0.57837 0.57838,0 0.57838,0.57837 v 7.17464 q 0,1.01216 -0.48886,1.49415 -0.48199,0.48886 -1.49415,0.48886 z m 0.71608,-3.91093 h 0.5233 q 0.90888,0 1.52857,-0.22722 0.61969,-0.22722 0.61969,-0.72297 v -2.75418 q 0,-0.55773 -0.40624,-0.7574 -0.39936,-0.20657 -1.1361,-0.20657 h -1.12922 q -0.88822,0 -1.21872,0.31673 -0.32362,0.31673 -0.32362,1.22561 v 1.59743 q 0,0.87445 0.32362,1.20495 0.32361,0.32362 1.21872,0.32362 z"
         style="font-weight:bold;font-family:Jura;-inkscape-font-specification:'Jura Bold'"
         id="path852" />
      <path
         d="m 115.54816,176.19664 v 0.3305 q 0,0.88822 0.32361,1.21184 0.32362,0.31673 1.21873,0.31673 h 1.12921 q 0.70232,0 1.03971,-0.13083 0.33738,-0.13082 0.44755,-0.46132 0.0757,-0.26165 0.20656,-0.39936 0.13771,-0.13771 0.41313,-0.13771 0.28919,0 0.44067,0.15148 0.15148,0.15148 0.0964,0.44067 -0.15147,0.8538 -0.81248,1.27381 -0.661,0.42001 -1.83153,0.42001 h -1.12921 q -1.37021,0 -2.03809,-0.661 -0.66101,-0.661 -0.66101,-2.02432 v -1.59743 q 0,-1.39774 0.66101,-2.05186 0.66788,-0.661 2.03809,-0.64723 h 1.12921 q 1.37709,0 2.0381,0.661 0.661,0.65412 0.661,2.03809 v 0.68855 q 0,0.57838 -0.57838,0.57838 z m 1.54234,-2.80927 q -0.89511,-0.0138 -1.21873,0.30985 -0.32361,0.32361 -0.32361,1.23249 v 0.11017 h 4.21389 v -0.11017 q 0,-0.90199 -0.32361,-1.21872 -0.31673,-0.32362 -1.21873,-0.32362 z"
         style="font-weight:bold;font-family:Jura;-inkscape-font-specification:'Jura Bold'"
         id="path854" />
      <path
         d="m 123.50188,179.21246 q -0.57838,0 -0.57838,-0.57837 v -5.8251 q 0,-0.57837 0.57838,-0.57837 0.57837,0 0.57837,0.57837 v 0.22722 q 0.72986,-0.80559 2.14826,-0.80559 h 0.38559 q 1.37709,0 2.03809,0.661 0.66101,0.661 0.66101,2.03809 v 3.70438 q 0,0.57837 -0.57838,0.57837 -0.57838,0 -0.57838,-0.57837 v -3.70438 q 0,-0.90199 -0.3305,-1.21872 -0.32362,-0.32362 -1.21184,-0.32362 h -0.38559 q -0.82625,0 -1.43905,0.1928 -0.61281,0.1859 -0.70921,0.59214 v 4.46178 q 0,0.57837 -0.57837,0.57837 z"
         style="font-weight:bold;font-family:Jura;-inkscape-font-specification:'Jura Bold'"
         id="path856" />
      <path
         d="m 133.87927,179.21246 q -1.3702,0 -2.03809,-0.661 -0.66101,-0.66789 -0.66101,-2.03809 v -1.59743 q 0,-1.37709 0.65412,-2.03809 0.66101,-0.661 2.04498,-0.64723 h 1.12921 q 1.02594,0 1.6112,0.34427 0.59215,0.34427 0.7574,1.06036 0.062,0.28919 -0.10328,0.44755 -0.15837,0.15837 -0.46133,0.15837 -0.26853,0 -0.39247,-0.13771 -0.12394,-0.13771 -0.22722,-0.38559 -0.10328,-0.1859 -0.3787,-0.25476 -0.27542,-0.0757 -0.8056,-0.0757 h -1.12921 q -0.88822,-0.0138 -1.21872,0.30985 -0.32362,0.31673 -0.32362,1.21872 v 1.59743 q 0,0.89511 0.32362,1.21872 0.3305,0.32362 1.21872,0.32362 h 1.12921 q 0.53018,0 0.8056,-0.0689 0.27542,-0.0757 0.3787,-0.26164 0.10328,-0.26165 0.22722,-0.39247 0.13083,-0.13083 0.40624,-0.13083 0.28919,0 0.44756,0.15837 0.16525,0.15836 0.10328,0.44755 -0.16525,0.7092 -0.7574,1.06036 -0.58526,0.34427 -1.6112,0.34427 z"
         style="font-weight:bold;font-family:Jura;-inkscape-font-specification:'Jura Bold'"
         id="path858" />
      <path
         d="m 139.6434,171.1014 q -0.65411,0 -0.65411,-0.661 v -0.40624 q 0,-0.64723 0.65411,-0.64723 h 0.39936 q 0.62658,0 0.62658,0.64723 v 0.40624 q 0,0.661 -0.62658,0.661 z m 0.1928,8.11106 q -0.57838,0 -0.57838,-0.57837 v -5.8251 q 0,-0.57837 0.57838,-0.57837 0.57837,0 0.57837,0.57837 v 5.8251 q 0,0.57837 -0.57837,0.57837 z"
         style="font-weight:bold;font-family:Jura;-inkscape-font-specification:'Jura Bold'"
         id="path860" />
      <path
         d="m 144.89801,179.21246 q -1.15676,0 -1.72136,-0.5646 -0.56461,-0.56461 -0.56461,-1.72137 0,-1.15675 0.55772,-1.72136 0.56461,-0.56461 1.72825,-0.56461 h 2.91254 q -0.0413,-0.72297 -0.3787,-0.98461 -0.33738,-0.26854 -1.15675,-0.26854 h -0.79871 q -0.68855,0 -1.02594,0.0964 -0.33738,0.0895 -0.47509,0.3305 -0.12394,0.28919 -0.25476,0.39936 -0.13083,0.11016 -0.39248,0.11016 -0.28918,0 -0.45443,-0.15836 -0.16526,-0.16525 -0.0964,-0.43378 0.20656,-0.77806 0.86068,-1.1361 0.661,-0.36493 1.83842,-0.36493 h 0.79871 q 1.37709,0 2.03809,0.661 0.661,0.661 0.661,2.03809 v 3.70438 q 0,0.57837 -0.57837,0.57837 -0.57838,0 -0.57838,-0.57837 v -0.30985 q -0.73674,0.88822 -2.14826,0.88822 z m 0,-1.15675 h 0.77117 q 0.50952,0 0.95708,-0.0895 0.44755,-0.0964 0.76428,-0.34428 0.32362,-0.24787 0.4269,-0.7092 v -1.11544 h -2.91943 q -0.68166,0 -0.90888,0.22722 -0.22034,0.22722 -0.22034,0.90199 0,0.68166 0.22034,0.90888 0.22722,0.22034 0.90888,0.22034 z"
         style="font-weight:bold;font-family:Jura;-inkscape-font-specification:'Jura Bold'"
         id="path862" />
      <path
         d="m 157.76204,179.21246 q -0.28919,0 -0.43379,-0.14459 -0.14459,-0.1446 -0.14459,-0.43378 v -7.58777 h -2.67156 q -0.28918,0 -0.43378,-0.14459 -0.14459,-0.1446 -0.14459,-0.43379 0,-0.28919 0.14459,-0.43378 0.1446,-0.1446 0.43378,-0.1446 h 6.49987 q 0.28919,0 0.43378,0.1446 0.1446,0.14459 0.1446,0.43378 0,0.28919 -0.1446,0.43379 -0.14459,0.14459 -0.43378,0.14459 h -2.67156 v 7.58777 q 0,0.27541 -0.15148,0.42689 -0.14459,0.15148 -0.42689,0.15148 z"
         style="font-weight:bold;font-family:Jura;-inkscape-font-specification:'Jura Bold'"
         id="path864" />
      <path
         d="m 162.20416,176.19664 v 0.3305 q 0,0.88822 0.32362,1.21184 0.32361,0.31673 1.21872,0.31673 h 1.12921 q 0.70232,0 1.03971,-0.13083 0.33738,-0.13082 0.44755,-0.46132 0.0757,-0.26165 0.20656,-0.39936 0.13771,-0.13771 0.41313,-0.13771 0.28919,0 0.44067,0.15148 0.15148,0.15148 0.0964,0.44067 -0.15148,0.8538 -0.81249,1.27381 -0.661,0.42001 -1.83153,0.42001 h -1.12921 q -1.3702,0 -2.03809,-0.661 -0.66101,-0.661 -0.66101,-2.02432 v -1.59743 q 0,-1.39774 0.66101,-2.05186 0.66789,-0.661 2.03809,-0.64723 h 1.12921 q 1.37709,0 2.0381,0.661 0.661,0.65412 0.661,2.03809 v 0.68855 q 0,0.57838 -0.57838,0.57838 z m 1.54234,-2.80927 q -0.89511,-0.0138 -1.21872,0.30985 -0.32362,0.32361 -0.32362,1.23249 v 0.11017 h 4.2139 v -0.11017 q 0,-0.90199 -0.32362,-1.21872 -0.31673,-0.32362 -1.21873,-0.32362 z"
         style="font-weight:bold;font-family:Jura;-inkscape-font-specification:'Jura Bold'"
         id="path866" />
      <path
         d="m 171.9481,179.21246 q -1.3702,0 -2.03809,-0.661 -0.66101,-0.66789 -0.66101,-2.03809 v -1.59743 q 0,-1.37709 0.65412,-2.03809 0.661,-0.661 2.04498,-0.64723 h 1.12921 q 1.02594,0 1.6112,0.34427 0.59215,0.34427 0.7574,1.06036 0.062,0.28919 -0.10328,0.44755 -0.15837,0.15837 -0.46133,0.15837 -0.26853,0 -0.39247,-0.13771 -0.12394,-0.13771 -0.22722,-0.38559 -0.10328,-0.1859 -0.3787,-0.25476 -0.27542,-0.0757 -0.8056,-0.0757 h -1.12921 q -0.88822,-0.0138 -1.21873,0.30985 -0.32361,0.31673 -0.32361,1.21872 v 1.59743 q 0,0.89511 0.32361,1.21872 0.33051,0.32362 1.21873,0.32362 h 1.12921 q 0.53018,0 0.8056,-0.0689 0.27542,-0.0757 0.3787,-0.26164 0.10328,-0.26165 0.22722,-0.39247 0.13082,-0.13083 0.40624,-0.13083 0.28919,0 0.44756,0.15837 0.16525,0.15836 0.10328,0.44755 -0.16525,0.7092 -0.7574,1.06036 -0.58526,0.34427 -1.6112,0.34427 z"
         style="font-weight:bold;font-family:Jura;-inkscape-font-specification:'Jura Bold'"
         id="path868" />
      <path
         d="m 177.90502,179.21246 q -0.57838,0 -0.57838,-0.57837 v -5.8251 q 0,-0.57837 0.57838,-0.57837 0.57838,0 0.57838,0.57837 v 0.22722 q 0.72986,-0.80559 2.14826,-0.80559 h 0.38558 q 1.37709,0 2.0381,0.661 0.661,0.661 0.661,2.03809 v 3.70438 q 0,0.57837 -0.57838,0.57837 -0.57837,0 -0.57837,-0.57837 v -3.70438 q 0,-0.90199 -0.33051,-1.21872 -0.32361,-0.32362 -1.21184,-0.32362 h -0.38558 q -0.82625,0 -1.43906,0.1928 -0.6128,0.1859 -0.7092,0.59214 v 4.46178 q 0,0.57837 -0.57838,0.57837 z"
         style="font-weight:bold;font-family:Jura;-inkscape-font-specification:'Jura Bold'"
         id="path870" />
      <path
         d="m 188.28242,179.21246 q -1.3702,0 -2.03809,-0.661 -0.66101,-0.661 -0.66101,-2.02432 v -1.59743 q 0,-1.38397 0.66101,-2.03809 0.66789,-0.661 2.03809,-0.661 h 1.12921 q 1.37709,0 2.0381,0.661 0.661,0.661 0.661,2.03809 v 1.58366 q 0,1.3702 -0.661,2.03809 -0.66101,0.661 -2.0381,0.661 z m -1.54234,-2.68532 q 0,0.88822 0.32362,1.21184 0.32361,0.31673 1.21872,0.31673 h 1.12921 q 0.902,0 1.21873,-0.32362 0.32361,-0.32361 0.32361,-1.21872 v -1.58366 q 0,-0.90199 -0.32361,-1.21872 -0.31673,-0.32362 -1.21873,-0.32362 h -1.12921 q -0.59903,0 -0.93642,0.13771 -0.3305,0.13083 -0.46821,0.46821 -0.13771,0.3305 -0.13771,0.93642 z"
         style="font-weight:bold;font-family:Jura;-inkscape-font-specification:'Jura Bold'"
         id="path872" />
      <path
         d="m 196.19482,179.21246 q -1.05347,0 -1.56988,-0.51641 -0.50952,-0.52329 -0.50952,-1.57676 v -7.02316 q 0,-0.57838 0.57837,-0.57838 0.57838,0 0.57838,0.57838 v 7.02316 q 0,0.55772 0.17902,0.75051 0.18591,0.18591 0.74363,0.18591 0.59215,0 0.59215,0.57838 0.0207,0.57837 -0.59215,0.57837 z"
         style="font-weight:bold;font-family:Jura;-inkscape-font-specification:'Jura Bold'"
         id="path874" />
      <path
         d="m 200.66449,171.37682 q -0.3787,-0.31673 -0.0551,-0.70231 l 1.00527,-1.21184 q 0.31673,-0.3787 0.70232,-0.0551 0.38558,0.30296 0.0551,0.70232 l -1.00528,1.21184 q -0.29607,0.3787 -0.70231,0.0551 z m -0.26165,7.83564 q -1.3702,0 -2.03809,-0.661 -0.661,-0.661 -0.661,-2.02432 v -1.59743 q 0,-1.38397 0.661,-2.03809 0.66789,-0.661 2.03809,-0.661 h 1.12922 q 1.37709,0 2.03809,0.661 0.661,0.661 0.661,2.03809 v 1.58366 q 0,1.3702 -0.661,2.03809 -0.661,0.661 -2.03809,0.661 z m -1.54234,-2.68532 q 0,0.88822 0.32362,1.21184 0.32361,0.31673 1.21872,0.31673 h 1.12922 q 0.90199,0 1.21872,-0.32362 0.32362,-0.32361 0.32362,-1.21872 v -1.58366 q 0,-0.90199 -0.32362,-1.21872 -0.31673,-0.32362 -1.21872,-0.32362 h -1.12922 q -0.59903,0 -0.93642,0.13771 -0.3305,0.13083 -0.46821,0.46821 -0.13771,0.3305 -0.13771,0.93642 z"
         style="font-weight:bold;font-family:Jura;-inkscape-font-specification:'Jura Bold'"
         id="path876" />
      <path
         d="m 207.88835,181.96664 q -0.83314,0 -1.31512,-0.33738 -0.4751,-0.33739 -0.61281,-1.02594 -0.0482,-0.28918 0.10328,-0.45444 0.15148,-0.16525 0.46133,-0.16525 0.26164,0 0.3787,0.13771 0.12394,0.1446 0.21345,0.4269 0.0826,0.15148 0.25476,0.20656 0.17902,0.0551 0.51641,0.0551 h 2.56138 q 0.51641,0 0.66789,-0.16525 0.15837,-0.15837 0.15837,-0.66101 v -1.60431 q -0.37182,0.40625 -0.92265,0.61969 -0.54395,0.21345 -1.22561,0.21345 h -0.5233 q -1.3702,0 -2.03809,-0.661 -0.661,-0.661 -0.661,-2.02432 v -1.59743 q 0,-1.38397 0.65411,-2.03809 0.66101,-0.661 2.04498,-0.661 h 1.12922 q 0.48886,0 0.87445,0.14459 0.39247,0.1446 0.66789,0.44067 v -0.007 q 0,-0.57837 0.57838,-0.57837 0.57837,0 0.57837,0.57837 v 7.17464 q 0,1.01216 -0.48886,1.49415 -0.48198,0.48886 -1.49415,0.48886 z m 0.71608,-3.91093 h 0.5233 q 0.90888,0 1.52857,-0.22722 0.61969,-0.22722 0.61969,-0.72297 v -2.75418 q 0,-0.55773 -0.40624,-0.7574 -0.39936,-0.20657 -1.1361,-0.20657 h -1.12922 q -0.88822,0 -1.21872,0.31673 -0.32362,0.31673 -0.32362,1.22561 v 1.59743 q 0,0.87445 0.32362,1.20495 0.32362,0.32362 1.21872,0.32362 z"
         style="font-weight:bold;font-family:Jura;-inkscape-font-specification:'Jura Bold'"
         id="path878" />
      <path
         d="m 215.01582,171.1014 q -0.65412,0 -0.65412,-0.661 v -0.40624 q 0,-0.64723 0.65412,-0.64723 h 0.39935 q 0.62658,0 0.62658,0.64723 v 0.40624 q 0,0.661 -0.62658,0.661 z m 0.19279,8.11106 q -0.57838,0 -0.57838,-0.57837 v -5.8251 q 0,-0.57837 0.57838,-0.57837 0.57838,0 0.57838,0.57837 v 5.8251 q 0,0.57837 -0.57838,0.57837 z"
         style="font-weight:bold;font-family:Jura;-inkscape-font-specification:'Jura Bold'"
         id="path880" />
      <path
         d="m 220.49076,179.21246 q -1.37021,0 -2.0381,-0.661 -0.661,-0.66789 -0.661,-2.03809 v -1.59743 q 0,-1.37709 0.65412,-2.03809 0.661,-0.661 2.04498,-0.64723 h 1.12921 q 1.02593,0 1.61119,0.34427 0.59215,0.34427 0.7574,1.06036 0.062,0.28919 -0.10328,0.44755 -0.15836,0.15837 -0.46132,0.15837 -0.26854,0 -0.39247,-0.13771 -0.12394,-0.13771 -0.22722,-0.38559 -0.10329,-0.1859 -0.3787,-0.25476 -0.27542,-0.0757 -0.8056,-0.0757 h -1.12921 q -0.88823,-0.0138 -1.21873,0.30985 -0.32362,0.31673 -0.32362,1.21872 v 1.59743 q 0,0.89511 0.32362,1.21872 0.3305,0.32362 1.21873,0.32362 h 1.12921 q 0.53018,0 0.8056,-0.0689 0.27541,-0.0757 0.3787,-0.26164 0.10328,-0.26165 0.22722,-0.39247 0.13082,-0.13083 0.40624,-0.13083 0.28919,0 0.44755,0.15837 0.16525,0.15836 0.10328,0.44755 -0.16525,0.7092 -0.7574,1.06036 -0.58526,0.34427 -1.61119,0.34427 z"
         style="font-weight:bold;font-family:Jura;-inkscape-font-specification:'Jura Bold'"
         id="path882" />
      <path
         d="m 227.74215,179.21246 q -1.15676,0 -1.72137,-0.5646 -0.5646,-0.56461 -0.5646,-1.72137 0,-1.15675 0.55772,-1.72136 0.56461,-0.56461 1.72825,-0.56461 h 2.91254 q -0.0413,-0.72297 -0.3787,-0.98461 -0.33738,-0.26854 -1.15675,-0.26854 h -0.79872 q -0.68854,0 -1.02593,0.0964 -0.33738,0.0895 -0.47509,0.3305 -0.12394,0.28919 -0.25477,0.39936 -0.13082,0.11016 -0.39247,0.11016 -0.28918,0 -0.45444,-0.15836 -0.16525,-0.16525 -0.0964,-0.43378 0.20656,-0.77806 0.86068,-1.1361 0.661,-0.36493 1.83841,-0.36493 h 0.79872 q 1.37709,0 2.03809,0.661 0.661,0.661 0.661,2.03809 v 3.70438 q 0,0.57837 -0.57837,0.57837 -0.57838,0 -0.57838,-0.57837 v -0.30985 q -0.73675,0.88822 -2.14826,0.88822 z m 0,-1.15675 h 0.77117 q 0.50952,0 0.95707,-0.0895 0.44756,-0.0964 0.76429,-0.34428 0.32362,-0.24787 0.4269,-0.7092 v -1.11544 h -2.91943 q -0.68166,0 -0.90888,0.22722 -0.22034,0.22722 -0.22034,0.90199 0,0.68166 0.22034,0.90888 0.22722,0.22034 0.90888,0.22034 z"
         style="font-weight:bold;font-family:Jura;-inkscape-font-specification:'Jura Bold'"
         id="path884" />
    </g>
  </g>
</svg>
